# File created by Blade
# Date/Time:  Tue Apr 07 21:33:03 2015
# Frame Rate: 120.000 fps
#------------------------------------------------------
:FULLY-SPECIFIED
:DEGREES
355
root 30.401705 32.384098 -14.020061 21.237905 -67.629735 -5.992728
Spine -2.593774 -3.259865 2.974492
Head 38.370188 -11.925836 -5.778595
LeftShoulder -22.347571 48.022988 2.979887
LeftArm 50.727157 9.755917 -80.525711
LeftForeArm -1.148488 0.000000 23.578344
LeftHand 4.385085 -0.000000 -8.088113
LeftHandThumb1 -26.253704 0.000000 33.147579
RightShoulder -6.368845 -11.241286 -16.114988
RightArm 12.840504 -7.710935 85.205807
RightForeArm 0.946926 -0.000000 30.298885
RightHand 5.786783 -0.000000 5.665803
RightHandThumb1 -24.326973 -0.000000 -32.862282
LeftUpLeg -31.347413 0.999200 2.125108
LeftLeg 44.612318 -0.000000 -0.000000
LeftFoot -14.011872 4.376771 -25.072098
LeftToeBase -16.267408 -0.000000 0.000000
RightUpLeg -18.695078 2.283745 4.602339
RightLeg 15.377296 -0.000000 -0.000000
RightFoot -9.185233 -13.900981 5.964662
RightToeBase -9.929010 -0.000000 0.000000
356
root 30.512658 32.398732 -14.029317 21.667934 -67.926587 -6.120044
Spine -2.571174 -3.406906 3.051283
Head 38.413209 -11.885747 -5.890915
LeftShoulder -22.277621 47.989859 3.071740
LeftArm 50.773517 9.905779 -80.338564
LeftForeArm -1.165777 -0.000000 23.275684
LeftHand 4.397931 -0.000000 -8.116440
LeftHandThumb1 -26.253704 0.000000 33.147579
RightShoulder -6.372147 -11.129024 -16.161437
RightArm 12.845942 -7.471242 85.300659
RightForeArm 0.891861 -0.000000 30.410431
RightHand 5.829630 -0.000000 5.511012
RightHandThumb1 -24.326973 -0.000000 -32.862282
LeftUpLeg -31.028704 0.926164 2.105120
LeftLeg 43.748075 -0.000000 -0.000000
LeftFoot -13.608558 4.416001 -24.703150
LeftToeBase -16.665477 -0.000000 0.000000
RightUpLeg -18.970934 2.352087 4.510881
RightLeg 14.893374 -0.000000 -0.000000
RightFoot -8.855576 -13.712598 5.883003
RightToeBase -9.761403 -0.000000 0.000000
357
root 30.626935 32.413336 -14.040192 22.129596 -68.208642 -6.269785
Spine -2.547420 -3.575665 3.129344
Head 38.434592 -11.794658 -5.999336
LeftShoulder -22.184181 47.967350 3.170622
LeftArm 50.797349 9.986460 -80.180480
LeftForeArm -1.115930 -0.000000 23.029143
LeftHand 4.430424 0.000000 -8.193975
LeftHandThumb1 -26.253704 0.000000 33.147579
RightShoulder -6.326825 -11.062475 -16.214097
RightArm 12.898676 -7.273659 85.380249
RightForeArm 0.924457 -0.000000 30.529819
RightHand 5.878012 -0.000000 5.588879
RightHandThumb1 -24.326973 -0.000000 -32.862282
LeftUpLeg -30.707180 0.835680 2.112319
LeftLeg 42.723621 -0.000000 -0.000000
LeftFoot -13.027790 4.672622 -24.224479
LeftToeBase -17.042058 -0.000000 0.000000
RightUpLeg -19.241813 2.485303 4.415945
RightLeg 14.366098 -0.000000 -0.000000
RightFoot -8.526191 -13.596280 5.782818
RightToeBase -9.518602 -0.000000 0.000000
358
root 30.739797 32.428127 -14.047823 22.530150 -68.489932 -6.368870
Spine -2.497328 -3.723545 3.177127
Head 38.469032 -11.772279 -6.097994
LeftShoulder -22.089820 47.957833 3.240890
LeftArm 50.853445 10.040573 -79.994705
LeftForeArm -1.154270 -0.000000 22.840017
LeftHand 4.509531 -0.000000 -8.307191
LeftHandThumb1 -26.253704 0.000000 33.147579
RightShoulder -6.301039 -11.010017 -16.248709
RightArm 12.926052 -7.078568 85.465786
RightForeArm 0.864421 -0.000000 30.724891
RightHand 5.836473 -0.000000 5.365875
RightHandThumb1 -24.326973 -0.000000 -32.862282
LeftUpLeg -30.333196 0.740571 2.101764
LeftLeg 41.532666 -0.000000 -0.000000
LeftFoot -12.138999 5.163742 -23.508457
LeftToeBase -17.992104 -0.000000 0.000000
RightUpLeg -19.499038 2.588923 4.299754
RightLeg 13.858283 -0.000000 -0.000000
RightFoot -8.180612 -13.418513 5.696355
RightToeBase -9.105980 -0.000000 0.000000
